<svg version="1.1" id="Layer_1" xmlns="http://www.w3.org/2000/svg" xmlns:xlink="http://www.w3.org/1999/xlink" x="0px" y="0px"
	 width="100%" viewBox="0 0 480 352" enable-background="new 0 0 480 352" xml:space="preserve">
<path fill="#000000" opacity="1.000000" stroke="none" 
	d="
M104.778030,216.996384 
	C101.417641,204.448166 100.477043,192.256653 101.224724,179.563065 
	C101.827812,169.324326 101.136703,158.983536 103.065910,148.800247 
	C107.097572,127.519188 116.254044,108.653946 130.618042,92.495033 
	C140.905853,80.921677 151.375031,69.472328 164.448685,60.800735 
	C182.908356,48.556664 203.191788,41.733597 225.220688,40.090744 
	C248.785919,38.333317 271.918243,39.896011 293.446136,50.824871 
	C324.509430,66.594452 351.190735,87.342117 367.726501,118.909882 
	C375.242584,133.258453 378.145935,149.075943 380.011444,164.972565 
	C382.384766,185.196381 381.159424,205.259476 374.390198,224.627350 
	C363.094727,256.945618 343.553925,282.304108 313.121796,299.323273 
	C300.260315,306.516052 287.794891,313.917786 273.304474,317.274261 
	C250.196243,322.627014 227.305908,320.682709 204.579590,315.175690 
	C178.176605,308.777771 154.800323,296.696198 137.305954,275.508057 
	C123.029541,258.217316 111.524139,239.083466 104.778030,216.996384 
M211.881897,225.626694 
	C226.276779,229.831543 240.993286,232.489746 255.756897,234.991074 
	C258.907776,235.524918 261.149719,234.840851 263.514221,232.967819 
	C273.207550,225.289307 281.604828,216.296860 290.311523,207.569229 
	C297.277069,200.586945 300.264130,193.668900 297.822174,183.700607 
	C294.660950,170.796295 292.855804,157.566483 287.573639,145.218826 
	C286.249695,142.123962 284.182861,140.141968 281.113678,138.724014 
	C266.930328,132.171356 252.060135,128.214417 236.574936,126.428284 
	C233.666153,126.092758 231.062210,126.498993 228.622879,128.427673 
	C214.834518,139.329651 202.902390,152.071472 191.639267,165.480881 
	C190.381760,166.978012 189.207306,168.527435 189.606049,170.857574 
	C192.335861,186.809006 196.361588,202.381226 202.403275,217.431976 
	C204.097183,221.651779 206.640366,224.476639 211.881897,225.626694 
M117.628273,210.865265 
	C119.724739,217.361694 122.526352,223.599777 124.818123,230.007751 
	C127.941849,238.741943 134.176865,244.395966 141.655411,249.031708 
	C150.391174,254.446793 159.974792,257.630127 170.076385,259.405060 
	C172.555649,259.840668 174.217178,259.112823 175.647858,257.156189 
	C183.114502,246.944565 190.595840,236.743271 198.147507,226.594543 
	C199.602997,224.638474 199.882614,222.830658 198.869675,220.592941 
	C191.741074,204.844894 187.919342,188.193863 185.595932,171.154480 
	C185.190247,168.179382 183.787994,166.439362 180.871719,165.485245 
	C169.315613,161.704437 158.053711,157.145447 147.140411,151.792496 
	C144.407654,150.452087 142.472931,150.941193 140.394577,152.730652 
	C134.185440,158.076736 128.763138,164.076797 123.988808,170.776138 
	C115.356781,182.888596 111.450928,195.614395 117.628273,210.865265 
M242.220245,55.725128 
	C231.449219,60.027447 222.730316,67.082657 215.119049,75.700111 
	C212.857224,78.260933 212.423462,80.449280 214.069916,83.712273 
	C219.620575,94.712814 224.959320,105.830170 229.995117,117.074821 
	C231.579239,120.612083 233.813660,122.164337 237.397354,122.599052 
	C252.692078,124.454376 267.478149,128.302460 281.582092,134.511459 
	C284.997406,136.014999 287.454315,135.374649 290.251984,133.262650 
	C298.229645,127.240234 306.197449,121.175392 314.507111,115.634033 
	C318.950165,112.671135 320.085449,109.586578 318.706146,104.449944 
	C313.463104,84.924103 304.730835,68.453224 284.130066,61.204605 
	C274.658295,57.871849 264.970734,55.724758 255.069565,54.223610 
	C250.820862,53.579456 246.834702,53.579052 242.220245,55.725128 
M343.269135,254.788116 
	C346.292358,250.772980 348.772858,246.575592 349.665039,241.455780 
	C351.781555,229.310379 348.860474,218.059418 344.153534,207.043533 
	C343.059326,204.482712 341.343140,203.336548 338.466339,203.073105 
	C328.211609,202.134018 317.926178,201.389709 307.783112,199.467758 
	C304.643738,198.872894 302.275604,199.527893 299.996033,202.316910 
	C289.027100,215.737122 277.358582,228.506180 262.974884,238.441269 
	C261.065094,239.760437 260.566559,241.102417 261.035645,243.450500 
	C263.218292,254.375687 264.549377,265.478455 264.905396,276.562439 
	C265.113739,283.049103 268.215485,285.488770 273.452148,286.732452 
	C292.392273,291.230652 309.738953,288.337067 324.802277,275.308929 
	C331.632904,269.401215 337.522278,262.638977 343.269135,254.788116 
M119.519432,170.083939 
	C125.060104,161.283707 131.641876,153.398651 139.896652,146.998367 
	C141.245804,145.952316 142.438446,144.891663 142.613617,143.033752 
	C143.885696,129.542084 147.617783,116.577812 151.974091,103.871063 
	C153.871170,98.337502 152.807327,94.967873 148.763031,91.329414 
	C143.760803,86.829147 142.203857,86.477196 137.624359,91.365067 
	C116.608322,113.796280 105.358521,140.192398 105.253326,171.167847 
	C105.235115,176.529266 108.116844,179.152542 112.529015,181.617325 
	C114.845619,177.778610 116.983650,174.235809 119.519432,170.083939 
M148.336792,85.225426 
	C156.777618,93.047401 156.708282,92.889580 167.204742,88.278389 
	C179.256424,82.983971 191.501938,78.167648 204.914612,77.688820 
	C207.241684,77.605736 208.474365,76.188782 209.813736,74.694046 
	C218.011261,65.545624 227.421600,57.976570 238.550491,52.641376 
	C239.566666,52.154221 240.765930,51.798714 241.134460,50.159645 
	C238.775436,47.404831 236.662949,44.389832 232.137390,44.302662 
	C199.740646,43.678654 173.162338,56.899620 150.131195,78.585808 
	C148.494293,80.127121 146.695618,81.939964 148.336792,85.225426 
M335.014709,120.454727 
	C341.104736,125.951363 346.169220,132.313156 350.725281,139.101227 
	C355.899963,146.810913 355.824799,146.578812 364.509552,143.984329 
	C368.984955,142.647369 370.360809,140.616669 369.111755,136.052872 
	C360.781128,105.614326 340.158813,84.731850 315.489532,67.078979 
	C312.417480,64.880684 308.543884,65.408539 305.460358,68.753197 
	C306.141479,69.845131 306.667236,70.863174 307.352234,71.759544 
	C315.976318,83.044914 322.385742,95.260735 323.376434,109.757851 
	C323.492981,111.463364 324.572723,112.344994 325.821320,113.269493 
	C328.757019,115.443176 331.605896,117.734131 335.014709,120.454727 
M163.769089,292.719055 
	C165.820816,294.141724 167.810623,295.665253 169.935120,296.969360 
	C178.496277,302.224548 187.494049,306.514282 197.446030,308.354126 
	C200.034546,308.832672 203.226929,309.975861 204.696625,306.169495 
	C205.888641,303.082275 207.068039,299.990204 208.310379,296.750793 
	C207.657440,296.167175 207.095169,295.567688 206.441422,295.094635 
	C194.929932,286.765472 184.042847,277.780426 175.866730,265.957733 
	C174.486679,263.962189 172.539215,263.558655 170.281738,263.270599 
	C155.826553,261.426025 142.377121,257.069427 131.262833,247.113266 
	C130.533585,246.459991 129.867599,245.643021 128.722656,245.735214 
	C125.626854,249.311935 125.438202,250.424362 128.097855,254.366058 
	C137.842148,268.807465 149.011749,281.949463 163.769089,292.719055 
M374.558350,158.945236 
	C373.980743,156.348557 373.439453,153.743134 372.816956,151.157272 
	C371.879974,147.265121 368.881714,146.520538 365.853119,147.706024 
	C362.522644,149.009659 356.806702,148.510223 357.602448,154.396805 
	C359.750214,170.284897 355.414398,184.687836 348.259674,198.524582 
	C347.133850,200.701843 346.459076,202.443924 347.821838,204.943176 
	C353.662720,215.654816 355.512665,227.182144 353.814362,239.222855 
	C353.432434,241.930542 354.213898,242.846603 356.808746,243.007904 
	C359.880829,243.198853 361.786377,241.881012 363.209686,239.257309 
	C366.713776,232.797913 369.665619,226.119156 371.737213,219.062973 
	C377.467529,199.544449 377.739105,179.756302 374.558350,158.945236 
M261.542694,314.863647 
	C275.892334,313.030243 289.405609,308.703522 301.871063,301.284149 
	C305.860352,298.909760 308.147186,295.678833 307.243073,290.977905 
	C305.672272,290.185913 304.580933,290.766998 303.463409,291.011963 
	C291.394226,293.657410 279.379425,294.367676 267.811462,289.045715 
	C265.076660,287.787567 263.100433,287.848724 260.485657,289.271942 
	C248.219650,295.948273 234.925705,298.516815 221.074844,298.101624 
	C212.727753,297.851410 212.185333,298.103241 209.471268,305.758911 
	C208.090881,309.652618 209.181717,311.725433 213.130096,312.657349 
	C228.833740,316.363770 244.687561,316.830078 261.542694,314.863647 
z"/>
</svg>